<mxfile host="app.diagrams.net" modified="2023-12-20T21:47:33.775Z" agent="Mozilla/5.0 (Windows NT 10.0; Win64; x64) AppleWebKit/537.36 (KHTML, like Gecko) Chrome/120.0.0.0 Safari/537.36" version="22.1.11" etag="MCNJlj4szV89h3Kl9rDh" type="github">
  <diagram name="PÃ¡gina-1" id="mqC5vg_ItCvTOxu2iG_7">
    <mxGraphModel>
      <root>
        <mxCell id="0" />
        <mxCell id="1" parent="0" />
      </root>
    </mxGraphModel>
  </diagram>
</mxfile>
